<?xml version="1.0" standalone="no"?>
<!DOCTYPE svg PUBLIC "-//W3C//DTD SVG 20010904//EN"
 "http://www.w3.org/TR/2001/REC-SVG-20010904/DTD/svg10.dtd">
<svg version="1.0" xmlns="http://www.w3.org/2000/svg"
 width="1447.000000pt" height="1447.000000pt" viewBox="0 0 1447.000000 1447.000000"
 preserveAspectRatio="xMidYMid meet">

<g transform="translate(0.000000,1447.000000) scale(0.100000,-0.100000)"
fill="#000000" stroke="none">
<path d="M6900 13848 c-604 -62 -1162 -259 -1642 -580 -857 -572 -1421 -1442
-1582 -2444 -125 -783 2 -1472 452 -2449 53 -115 231 -485 252 -525 7 -13 -15
-15 -168 -17 -576 -5 -1095 -229 -1497 -645 -123 -126 -198 -222 -278 -354
-369 -606 -416 -1318 -128 -1971 202 -459 593 -850 1059 -1058 1016 -453 2197
-48 2725 936 192 356 279 809 237 1230 -60 592 -232 1113 -655 1974 -67 138
-191 390 -275 560 -337 686 -474 1046 -540 1430 -74 426 4 935 207 1355 331
682 960 1174 1693 1323 414 85 842 59 1249 -75 680 -225 1238 -761 1495 -1437
50 -129 93 -288 123 -456 26 -143 27 -165 27 -475 0 -312 -6 -428 -40 -770
-36 -362 -116 -809 -220 -1225 -107 -427 -209 -755 -554 -1795 -56 -168 -208
-648 -228 -720 -6 -19 -28 -99 -51 -177 -235 -813 -366 -1597 -402 -2405 -19
-433 -1 -671 72 -933 226 -810 922 -1412 1759 -1521 247 -32 335 -30 620 12
239 36 554 155 765 289 260 166 497 400 659 653 192 300 306 653 332 1030 l7
102 -601 0 -601 0 -6 -58 c-39 -365 -248 -650 -575 -783 -178 -72 -432 -79
-614 -17 -304 104 -535 361 -602 669 -24 111 -28 249 -15 509 23 462 62 807
136 1195 114 604 219 974 600 2125 179 542 211 642 300 940 253 846 390 1570
445 2345 18 251 23 689 11 860 -49 677 -271 1296 -665 1853 -423 598 -1043
1066 -1736 1310 -312 110 -539 157 -978 201 -148 16 -359 12 -572 -11z m-2511
-7228 c285 -47 553 -259 674 -535 99 -226 96 -502 -7 -729 -114 -249 -327
-430 -594 -503 -133 -37 -323 -39 -452 -4 -283 76 -509 272 -616 534 -46 115
-65 212 -65 342 -1 242 78 444 240 617 137 146 295 236 478 273 83 16 255 19
342 5z"/>
</g>
</svg>
